name X:\Health\ResearchProjects\ASalo\Sprinting 2016\NHaralabidis\Running_implicit_muscleDriven\Running_implicit_muscleDriven\Study2\ExperimentalData\IK_Splined\twoSteps_IK_BSplines_90_meshInts_study2_p02_s_01_lowIK_modROI.mot
datacolumns 38
datarows 6
range 0.32800000 0.33359558
endheader
                time	         pelvis_tilt	         pelvis_list	     pelvis_rotation	           pelvis_tx	           pelvis_ty	           pelvis_tz	       hip_flexion_r	     hip_adduction_r	      hip_rotation_r	        knee_angle_r	       ankle_angle_r	    subtalar_angle_r	         mtp_angle_r	       hip_flexion_l	     hip_adduction_l	      hip_rotation_l	        knee_angle_l	       ankle_angle_l	    subtalar_angle_l	         mtp_angle_l	    lumbar_extension	      lumbar_bending	     lumbar_rotation	          arm_flex_r	           arm_add_r	           arm_rot_r	        elbow_flex_r	           pro_sup_r	        wrist_flex_r	         wrist_dev_r	          arm_flex_l	           arm_add_l	           arm_rot_l	        elbow_flex_l	           pro_sup_l	        wrist_flex_l	         wrist_dev_l	
          0.32800000	        -23.90307194	         -6.38156182	          9.46988351	         -1.36070003	          0.83286671	          0.29608575	         79.48894873	         -5.90656451	         -3.04091840	        -86.14900356	          5.86376810	        -23.61358532	          0.19495881	         -5.33191607	         -4.90711818	         10.00032194	        -37.52993749	        -33.61541096	          6.80971140	          6.80475054	        -21.33228414	         17.03421343	         -0.33277292	        -65.85451932	          7.89249995	        -31.53931276	         65.10498229	         72.01353364	         -3.60714776	          8.11876608	         31.24376175	         -6.62619566	         22.79600669	        139.50280242	         49.04330993	         -6.15605752	          5.23633874	
          0.32875114	        -23.79837309	         -6.25890549	          9.39947964	         -1.35695367	          0.83337424	          0.29610733	         78.94625787	         -5.89529617	         -2.98284539	        -85.85850914	          5.76721250	        -23.51462443	          0.27459566	         -5.16336565	         -4.73766107	          9.69623899	        -38.08206864	        -33.63183551	          7.11613340	          6.98407898	        -21.53380682	         16.93983655	         -0.42807247	        -65.41417964	          7.58953438	        -31.38310276	         65.25174352	         72.00167037	         -3.58579582	          8.14816911	         30.43167942	         -6.77472470	         22.39973041	        139.09755741	         49.04366323	         -6.24125376	          5.28462560	
          0.33112442	        -23.46756743	         -5.87136155	          9.17703214	         -1.34511669	          0.83497780	          0.29617552	         77.23157628	         -5.85969282	         -2.79935838	        -84.94066535	          5.46213622	        -23.20194840	          0.52621558	         -4.63081510	         -4.20224578	          8.73546101	        -39.82657769	        -33.68373038	          8.08430186	          7.55068366	        -22.17053622	         16.64164413	         -0.72918015	        -64.02288597	          6.63228686	        -30.88954292	         65.71544907	         71.96418729	         -3.51833240	          8.24107067	         27.86583075	         -7.24401583	         21.14765912	        137.81714857	         49.04477951	         -6.51043909	          5.43719234	
          0.33284444	        -23.22824084	         -5.60090293	          9.02057880	         -1.33653950	          0.83611962	          0.29624311	         75.97523595	         -5.83633197	         -2.68170697	        -84.26380641	          5.30353025	        -22.95840412	          0.73165009	         -4.23246423	         -3.83779032	          8.02938739	        -41.10785971	        -33.69879073	          8.61449107	          7.92225746	        -22.62550329	         16.42957313	         -0.95171548	        -63.00406756	          5.93977421	        -30.51096470	         66.05178513	         71.94201654	         -3.47004389	          8.30762055	         26.01969269	         -7.56815346	         20.21632913	        136.83569564	         49.02845271	         -6.70346523	          5.54964393	
          0.33284444	        -23.22824084	         -5.60090293	          9.02057880	         -1.33653950	          0.83611962	          0.29624311	         75.97523595	         -5.83633197	         -2.68170697	        -84.26380641	          5.30353025	        -22.95840412	          0.73165009	         -4.23246423	         -3.83779032	          8.02938739	        -41.10785971	        -33.69879073	          8.61449107	          7.92225746	        -22.62550329	         16.42957313	         -0.95171548	        -63.00406756	          5.93977421	        -30.51096470	         66.05178513	         71.94201654	         -3.47004389	          8.30762055	         26.01969269	         -7.56815346	         20.21632913	        136.83569564	         49.02845271	         -6.70346523	          5.54964393	
          0.33359558	        -23.12393726	         -5.48797339	          8.95462579	         -1.33279463	          0.83660812	          0.29628167	         75.41980852	         -5.82734541	         -2.63795514	        -83.96242260	          5.26535900	        -22.84362351	          0.83284296	         -4.05234128	         -3.69036544	          7.71619158	        -41.67583309	        -33.69414886	          8.76071062	          8.06508660	        -22.82095432	         16.33897269	         -1.05104059	        -62.55393232	          5.63797413	        -30.33525486	         66.19879657	         71.93481954	         -3.44925739	          8.33629485	         25.22017313	         -7.70175515	         19.79772754	        136.38048653	         49.01279769	         -6.78673276	          5.59968674	
